<mxfile host="app.diagrams.net" modified="2023-02-17T07:44:34.878Z" agent="5.0 (Macintosh; Intel Mac OS X 10_15_7) AppleWebKit/537.36 (KHTML, like Gecko) Chrome/109.0.0.0 Safari/537.36" etag="sgClmA_028MNriYopR9g" version="20.8.20" type="github">
  <diagram id="4CnJdhBB1DOJsMoVze_0" name="第 1 页">
    <mxGraphModel dx="1308" dy="1940" grid="1" gridSize="10" guides="1" tooltips="1" connect="1" arrows="1" fold="1" page="1" pageScale="1" pageWidth="827" pageHeight="1169" math="0" shadow="0">
      <root>
        <mxCell id="0" />
        <mxCell id="1" parent="0" />
        <mxCell id="Fv1dl7v4SsAJbc2tJzZJ-7" value="" style="rounded=0;whiteSpace=wrap;html=1;sketch=1;curveFitting=1;jiggle=2;" parent="1" vertex="1">
          <mxGeometry x="171" y="500" width="969" height="200" as="geometry" />
        </mxCell>
        <mxCell id="Fv1dl7v4SsAJbc2tJzZJ-1" value="IT基础设施层" style="rounded=0;whiteSpace=wrap;html=1;sketch=1;curveFitting=1;jiggle=2;" parent="1" vertex="1">
          <mxGeometry x="70" y="500" width="80" height="200" as="geometry" />
        </mxCell>
        <mxCell id="Fv1dl7v4SsAJbc2tJzZJ-2" value="计算、存储、网络" style="rounded=0;whiteSpace=wrap;html=1;fillColor=#d5e8d4;strokeColor=#82b366;sketch=1;curveFitting=1;jiggle=2;" parent="1" vertex="1">
          <mxGeometry x="191" y="640" width="929" height="40" as="geometry" />
        </mxCell>
        <mxCell id="Fv1dl7v4SsAJbc2tJzZJ-3" value="物理机" style="rounded=0;whiteSpace=wrap;html=1;fillColor=#d5e8d4;strokeColor=#82b366;sketch=1;curveFitting=1;jiggle=2;" parent="1" vertex="1">
          <mxGeometry x="191" y="580" width="120" height="40" as="geometry" />
        </mxCell>
        <mxCell id="Fv1dl7v4SsAJbc2tJzZJ-4" value="运行时环境" style="rounded=0;whiteSpace=wrap;html=1;fillColor=#d5e8d4;strokeColor=#82b366;sketch=1;curveFitting=1;jiggle=2;" parent="1" vertex="1">
          <mxGeometry x="191" y="520" width="929" height="40" as="geometry" />
        </mxCell>
        <mxCell id="Fv1dl7v4SsAJbc2tJzZJ-5" value="虚拟机" style="rounded=0;whiteSpace=wrap;html=1;fillColor=#d5e8d4;strokeColor=#82b366;sketch=1;curveFitting=1;jiggle=2;" parent="1" vertex="1">
          <mxGeometry x="596" y="580" width="120" height="40" as="geometry" />
        </mxCell>
        <mxCell id="Fv1dl7v4SsAJbc2tJzZJ-6" value="Docker" style="rounded=0;whiteSpace=wrap;html=1;fillColor=#d5e8d4;strokeColor=#82b366;sketch=1;curveFitting=1;jiggle=2;" parent="1" vertex="1">
          <mxGeometry x="1000" y="580" width="120" height="40" as="geometry" />
        </mxCell>
        <mxCell id="Fv1dl7v4SsAJbc2tJzZJ-8" value="" style="endArrow=none;dashed=1;html=1;dashPattern=1 3;strokeWidth=2;rounded=0;sketch=1;curveFitting=1;jiggle=2;" parent="1" edge="1">
          <mxGeometry width="50" height="50" relative="1" as="geometry">
            <mxPoint x="71" y="470" as="sourcePoint" />
            <mxPoint x="1140" y="470" as="targetPoint" />
          </mxGeometry>
        </mxCell>
        <mxCell id="Fv1dl7v4SsAJbc2tJzZJ-9" value="" style="rounded=0;whiteSpace=wrap;html=1;sketch=1;curveFitting=1;jiggle=2;" parent="1" vertex="1">
          <mxGeometry x="171" y="360" width="969" height="80" as="geometry" />
        </mxCell>
        <mxCell id="Fv1dl7v4SsAJbc2tJzZJ-10" value="数据层" style="rounded=0;whiteSpace=wrap;html=1;sketch=1;curveFitting=1;jiggle=2;" parent="1" vertex="1">
          <mxGeometry x="70" y="360" width="80" height="80" as="geometry" />
        </mxCell>
        <mxCell id="Fv1dl7v4SsAJbc2tJzZJ-12" value="Redis Cluster" style="rounded=0;whiteSpace=wrap;html=1;fillColor=#d5e8d4;strokeColor=#82b366;sketch=1;curveFitting=1;jiggle=2;" parent="1" vertex="1">
          <mxGeometry x="191" y="380" width="70" height="40" as="geometry" />
        </mxCell>
        <mxCell id="Fv1dl7v4SsAJbc2tJzZJ-14" value="MySQL" style="rounded=0;whiteSpace=wrap;html=1;fillColor=#d5e8d4;strokeColor=#82b366;sketch=1;curveFitting=1;jiggle=2;" parent="1" vertex="1">
          <mxGeometry x="728" y="380" width="70" height="40" as="geometry" />
        </mxCell>
        <mxCell id="Fv1dl7v4SsAJbc2tJzZJ-15" value="ES" style="rounded=0;whiteSpace=wrap;html=1;fillColor=#d5e8d4;strokeColor=#82b366;sketch=1;curveFitting=1;jiggle=2;" parent="1" vertex="1">
          <mxGeometry x="1050" y="380" width="70" height="40" as="geometry" />
        </mxCell>
        <mxCell id="Fv1dl7v4SsAJbc2tJzZJ-16" value="" style="endArrow=none;dashed=1;html=1;dashPattern=1 3;strokeWidth=2;rounded=0;sketch=1;curveFitting=1;jiggle=2;" parent="1" edge="1">
          <mxGeometry width="50" height="50" relative="1" as="geometry">
            <mxPoint x="71" y="330" as="sourcePoint" />
            <mxPoint x="1140" y="330" as="targetPoint" />
          </mxGeometry>
        </mxCell>
        <mxCell id="Fv1dl7v4SsAJbc2tJzZJ-17" value="" style="rounded=0;whiteSpace=wrap;html=1;sketch=1;curveFitting=1;jiggle=2;" parent="1" vertex="1">
          <mxGeometry x="170" y="70" width="970" height="230" as="geometry" />
        </mxCell>
        <mxCell id="Fv1dl7v4SsAJbc2tJzZJ-18" value="应用层" style="rounded=0;whiteSpace=wrap;html=1;sketch=1;curveFitting=1;jiggle=2;" parent="1" vertex="1">
          <mxGeometry x="70" y="70" width="80" height="230" as="geometry" />
        </mxCell>
        <mxCell id="Fv1dl7v4SsAJbc2tJzZJ-63" value="" style="rounded=0;whiteSpace=wrap;html=1;sketch=1;curveFitting=1;jiggle=2;" parent="1" vertex="1">
          <mxGeometry x="170" y="-320" width="1180" height="330" as="geometry" />
        </mxCell>
        <mxCell id="Fv1dl7v4SsAJbc2tJzZJ-64" value="管理层" style="rounded=0;whiteSpace=wrap;html=1;sketch=1;curveFitting=1;jiggle=2;" parent="1" vertex="1">
          <mxGeometry x="70" y="-320" width="80" height="330" as="geometry" />
        </mxCell>
        <mxCell id="Fv1dl7v4SsAJbc2tJzZJ-65" value="&lt;div style=&quot;&quot;&gt;&lt;br&gt;&lt;/div&gt;" style="rounded=0;whiteSpace=wrap;html=1;fillColor=#dae8fc;strokeColor=#6c8ebf;align=center;sketch=1;curveFitting=1;jiggle=2;" parent="1" vertex="1">
          <mxGeometry x="191" y="-250" width="170" height="110" as="geometry" />
        </mxCell>
        <mxCell id="Fv1dl7v4SsAJbc2tJzZJ-67" value="资源管理" style="text;html=1;strokeColor=none;fillColor=none;align=center;verticalAlign=middle;whiteSpace=wrap;rounded=0;sketch=1;curveFitting=1;jiggle=2;" parent="1" vertex="1">
          <mxGeometry x="251" y="-250" width="60" height="30" as="geometry" />
        </mxCell>
        <mxCell id="Fv1dl7v4SsAJbc2tJzZJ-68" value="效能度量平台" style="rounded=0;whiteSpace=wrap;html=1;fillColor=#d5e8d4;strokeColor=#82b366;sketch=1;curveFitting=1;jiggle=2;" parent="1" vertex="1">
          <mxGeometry x="201" y="-180" width="70" height="30" as="geometry" />
        </mxCell>
        <mxCell id="Fv1dl7v4SsAJbc2tJzZJ-69" value="CMDB" style="rounded=0;whiteSpace=wrap;html=1;fillColor=#d5e8d4;strokeColor=#82b366;sketch=1;curveFitting=1;jiggle=2;" parent="1" vertex="1">
          <mxGeometry x="201" y="-220" width="70" height="30" as="geometry" />
        </mxCell>
        <mxCell id="Fv1dl7v4SsAJbc2tJzZJ-72" value="公有云" style="rounded=0;whiteSpace=wrap;html=1;fillColor=#d5e8d4;strokeColor=#82b366;sketch=1;curveFitting=1;jiggle=2;" parent="1" vertex="1">
          <mxGeometry x="281" y="-180" width="70" height="30" as="geometry" />
        </mxCell>
        <mxCell id="Fv1dl7v4SsAJbc2tJzZJ-73" value="云平台" style="rounded=0;whiteSpace=wrap;html=1;fillColor=#d5e8d4;strokeColor=#82b366;sketch=1;curveFitting=1;jiggle=2;" parent="1" vertex="1">
          <mxGeometry x="281" y="-220" width="70" height="30" as="geometry" />
        </mxCell>
        <mxCell id="Fv1dl7v4SsAJbc2tJzZJ-87" value="&lt;div style=&quot;&quot;&gt;&lt;br&gt;&lt;/div&gt;" style="rounded=0;whiteSpace=wrap;html=1;fillColor=#dae8fc;strokeColor=#6c8ebf;align=center;sketch=1;curveFitting=1;jiggle=2;" parent="1" vertex="1">
          <mxGeometry x="567" y="-250" width="180" height="240" as="geometry" />
        </mxCell>
        <mxCell id="Fv1dl7v4SsAJbc2tJzZJ-88" value="质量检测" style="rounded=0;whiteSpace=wrap;html=1;fillColor=#d5e8d4;strokeColor=#82b366;sketch=1;curveFitting=1;jiggle=2;" parent="1" vertex="1">
          <mxGeometry x="580" y="-140" width="70" height="30" as="geometry" />
        </mxCell>
        <mxCell id="Fv1dl7v4SsAJbc2tJzZJ-89" value="CI/CD" style="text;html=1;strokeColor=none;fillColor=none;align=center;verticalAlign=middle;whiteSpace=wrap;rounded=0;sketch=1;curveFitting=1;jiggle=2;" parent="1" vertex="1">
          <mxGeometry x="630" y="-250" width="60" height="30" as="geometry" />
        </mxCell>
        <mxCell id="Fv1dl7v4SsAJbc2tJzZJ-90" value="环境管理" style="rounded=0;whiteSpace=wrap;html=1;fillColor=#d5e8d4;strokeColor=#82b366;sketch=1;curveFitting=1;jiggle=2;" parent="1" vertex="1">
          <mxGeometry x="580" y="-180" width="70" height="30" as="geometry" />
        </mxCell>
        <mxCell id="Fv1dl7v4SsAJbc2tJzZJ-91" value="Beetle" style="rounded=0;whiteSpace=wrap;html=1;fillColor=#d5e8d4;strokeColor=#82b366;sketch=1;curveFitting=1;jiggle=2;" parent="1" vertex="1">
          <mxGeometry x="580" y="-220" width="70" height="30" as="geometry" />
        </mxCell>
        <mxCell id="Fv1dl7v4SsAJbc2tJzZJ-92" value="自动化测试" style="rounded=0;whiteSpace=wrap;html=1;fillColor=#d5e8d4;strokeColor=#82b366;sketch=1;curveFitting=1;jiggle=2;" parent="1" vertex="1">
          <mxGeometry x="580" y="-100" width="70" height="30" as="geometry" />
        </mxCell>
        <mxCell id="Fv1dl7v4SsAJbc2tJzZJ-93" value="安全检测" style="rounded=0;whiteSpace=wrap;html=1;fillColor=#d5e8d4;strokeColor=#82b366;sketch=1;curveFitting=1;jiggle=2;" parent="1" vertex="1">
          <mxGeometry x="660" y="-140" width="70" height="30" as="geometry" />
        </mxCell>
        <mxCell id="Fv1dl7v4SsAJbc2tJzZJ-95" value="Deploy" style="rounded=0;whiteSpace=wrap;html=1;fillColor=#d5e8d4;strokeColor=#82b366;sketch=1;curveFitting=1;jiggle=2;" parent="1" vertex="1">
          <mxGeometry x="660" y="-220" width="70" height="30" as="geometry" />
        </mxCell>
        <mxCell id="Fv1dl7v4SsAJbc2tJzZJ-96" value="单元测试" style="rounded=0;whiteSpace=wrap;html=1;fillColor=#d5e8d4;strokeColor=#82b366;sketch=1;curveFitting=1;jiggle=2;" parent="1" vertex="1">
          <mxGeometry x="660" y="-100" width="70" height="30" as="geometry" />
        </mxCell>
        <mxCell id="Fv1dl7v4SsAJbc2tJzZJ-99" value="&lt;div style=&quot;&quot;&gt;&lt;br&gt;&lt;/div&gt;" style="rounded=0;whiteSpace=wrap;html=1;fillColor=#dae8fc;strokeColor=#6c8ebf;align=center;sketch=1;curveFitting=1;jiggle=2;" parent="1" vertex="1">
          <mxGeometry x="190" y="-120" width="170" height="110" as="geometry" />
        </mxCell>
        <mxCell id="Fv1dl7v4SsAJbc2tJzZJ-100" value="元信息管理" style="text;html=1;strokeColor=none;fillColor=none;align=center;verticalAlign=middle;whiteSpace=wrap;rounded=0;sketch=1;curveFitting=1;jiggle=2;" parent="1" vertex="1">
          <mxGeometry x="240" y="-120" width="70" height="30" as="geometry" />
        </mxCell>
        <mxCell id="Fv1dl7v4SsAJbc2tJzZJ-101" value="Gitlab" style="rounded=0;whiteSpace=wrap;html=1;fillColor=#d5e8d4;strokeColor=#82b366;sketch=1;curveFitting=1;jiggle=2;" parent="1" vertex="1">
          <mxGeometry x="200" y="-50" width="70" height="30" as="geometry" />
        </mxCell>
        <mxCell id="Fv1dl7v4SsAJbc2tJzZJ-102" value="ApiDoc" style="rounded=0;whiteSpace=wrap;html=1;fillColor=#d5e8d4;strokeColor=#82b366;sketch=1;curveFitting=1;jiggle=2;" parent="1" vertex="1">
          <mxGeometry x="200" y="-90" width="70" height="30" as="geometry" />
        </mxCell>
        <mxCell id="Fv1dl7v4SsAJbc2tJzZJ-103" value="SIC" style="rounded=0;whiteSpace=wrap;html=1;fillColor=#d5e8d4;strokeColor=#82b366;sketch=1;curveFitting=1;jiggle=2;" parent="1" vertex="1">
          <mxGeometry x="280" y="-50" width="70" height="30" as="geometry" />
        </mxCell>
        <mxCell id="Fv1dl7v4SsAJbc2tJzZJ-104" value="Tapd" style="rounded=0;whiteSpace=wrap;html=1;fillColor=#d5e8d4;strokeColor=#82b366;sketch=1;curveFitting=1;jiggle=2;" parent="1" vertex="1">
          <mxGeometry x="280" y="-90" width="70" height="30" as="geometry" />
        </mxCell>
        <mxCell id="Fv1dl7v4SsAJbc2tJzZJ-105" value="&lt;div style=&quot;&quot;&gt;&lt;br&gt;&lt;/div&gt;" style="rounded=0;whiteSpace=wrap;html=1;fillColor=#dae8fc;strokeColor=#6c8ebf;align=center;sketch=1;curveFitting=1;jiggle=2;" parent="1" vertex="1">
          <mxGeometry x="380" y="-250" width="170" height="70" as="geometry" />
        </mxCell>
        <mxCell id="Fv1dl7v4SsAJbc2tJzZJ-106" value="工单管理" style="text;html=1;strokeColor=none;fillColor=none;align=center;verticalAlign=middle;whiteSpace=wrap;rounded=0;sketch=1;curveFitting=1;jiggle=2;" parent="1" vertex="1">
          <mxGeometry x="440" y="-250" width="60" height="30" as="geometry" />
        </mxCell>
        <mxCell id="Fv1dl7v4SsAJbc2tJzZJ-108" value="运维工单" style="rounded=0;whiteSpace=wrap;html=1;fillColor=#d5e8d4;strokeColor=#82b366;sketch=1;curveFitting=1;jiggle=2;" parent="1" vertex="1">
          <mxGeometry x="390" y="-220" width="70" height="30" as="geometry" />
        </mxCell>
        <mxCell id="Fv1dl7v4SsAJbc2tJzZJ-110" value="IDB" style="rounded=0;whiteSpace=wrap;html=1;fillColor=#d5e8d4;strokeColor=#82b366;sketch=1;curveFitting=1;jiggle=2;" parent="1" vertex="1">
          <mxGeometry x="470" y="-220" width="70" height="30" as="geometry" />
        </mxCell>
        <mxCell id="Fv1dl7v4SsAJbc2tJzZJ-111" value="&lt;div style=&quot;&quot;&gt;&lt;br&gt;&lt;/div&gt;" style="rounded=0;whiteSpace=wrap;html=1;fillColor=#dae8fc;strokeColor=#6c8ebf;align=center;sketch=1;curveFitting=1;jiggle=2;" parent="1" vertex="1">
          <mxGeometry x="1160" y="-120" width="170" height="110" as="geometry" />
        </mxCell>
        <mxCell id="Fv1dl7v4SsAJbc2tJzZJ-112" value="MIS" style="text;html=1;strokeColor=none;fillColor=none;align=center;verticalAlign=middle;whiteSpace=wrap;rounded=0;sketch=1;curveFitting=1;jiggle=2;" parent="1" vertex="1">
          <mxGeometry x="1220" y="-120" width="60" height="30" as="geometry" />
        </mxCell>
        <mxCell id="Fv1dl7v4SsAJbc2tJzZJ-113" value="考勤" style="rounded=0;whiteSpace=wrap;html=1;fillColor=#d5e8d4;strokeColor=#82b366;sketch=1;curveFitting=1;jiggle=2;" parent="1" vertex="1">
          <mxGeometry x="1170" y="-50" width="70" height="30" as="geometry" />
        </mxCell>
        <mxCell id="Fv1dl7v4SsAJbc2tJzZJ-114" value="OA" style="rounded=0;whiteSpace=wrap;html=1;fillColor=#d5e8d4;strokeColor=#82b366;sketch=1;curveFitting=1;jiggle=2;" parent="1" vertex="1">
          <mxGeometry x="1170" y="-90" width="70" height="30" as="geometry" />
        </mxCell>
        <mxCell id="Fv1dl7v4SsAJbc2tJzZJ-115" value="EHR" style="rounded=0;whiteSpace=wrap;html=1;fillColor=#d5e8d4;strokeColor=#82b366;sketch=1;curveFitting=1;jiggle=2;" parent="1" vertex="1">
          <mxGeometry x="1250" y="-50" width="70" height="30" as="geometry" />
        </mxCell>
        <mxCell id="Fv1dl7v4SsAJbc2tJzZJ-116" value="会议室" style="rounded=0;whiteSpace=wrap;html=1;fillColor=#d5e8d4;strokeColor=#82b366;sketch=1;curveFitting=1;jiggle=2;" parent="1" vertex="1">
          <mxGeometry x="1250" y="-90" width="70" height="30" as="geometry" />
        </mxCell>
        <mxCell id="Fv1dl7v4SsAJbc2tJzZJ-117" value="&lt;div style=&quot;&quot;&gt;&lt;br&gt;&lt;/div&gt;" style="rounded=0;whiteSpace=wrap;html=1;fillColor=#dae8fc;strokeColor=#6c8ebf;align=center;sketch=1;curveFitting=1;jiggle=2;" parent="1" vertex="1">
          <mxGeometry x="1160" y="-250" width="170" height="110" as="geometry" />
        </mxCell>
        <mxCell id="Fv1dl7v4SsAJbc2tJzZJ-118" value="安全管理" style="text;html=1;strokeColor=none;fillColor=none;align=center;verticalAlign=middle;whiteSpace=wrap;rounded=0;sketch=1;curveFitting=1;jiggle=2;" parent="1" vertex="1">
          <mxGeometry x="1220" y="-250" width="60" height="30" as="geometry" />
        </mxCell>
        <mxCell id="Fv1dl7v4SsAJbc2tJzZJ-119" value="入侵检测" style="rounded=0;whiteSpace=wrap;html=1;fillColor=#d5e8d4;strokeColor=#82b366;sketch=1;curveFitting=1;jiggle=2;" parent="1" vertex="1">
          <mxGeometry x="1170" y="-180" width="70" height="30" as="geometry" />
        </mxCell>
        <mxCell id="Fv1dl7v4SsAJbc2tJzZJ-120" value="应用防火墙" style="rounded=0;whiteSpace=wrap;html=1;fillColor=#d5e8d4;strokeColor=#82b366;sketch=1;curveFitting=1;jiggle=2;" parent="1" vertex="1">
          <mxGeometry x="1170" y="-220" width="70" height="30" as="geometry" />
        </mxCell>
        <mxCell id="Fv1dl7v4SsAJbc2tJzZJ-121" value="SDL" style="rounded=0;whiteSpace=wrap;html=1;fillColor=#d5e8d4;strokeColor=#82b366;sketch=1;curveFitting=1;jiggle=2;" parent="1" vertex="1">
          <mxGeometry x="1250" y="-180" width="70" height="30" as="geometry" />
        </mxCell>
        <mxCell id="Fv1dl7v4SsAJbc2tJzZJ-122" value="应急响应中心" style="rounded=0;whiteSpace=wrap;html=1;fillColor=#d5e8d4;strokeColor=#82b366;sketch=1;curveFitting=1;jiggle=2;" parent="1" vertex="1">
          <mxGeometry x="1250" y="-220" width="70" height="30" as="geometry" />
        </mxCell>
        <mxCell id="Fv1dl7v4SsAJbc2tJzZJ-123" value="&lt;div style=&quot;&quot;&gt;&lt;br&gt;&lt;/div&gt;" style="rounded=0;whiteSpace=wrap;html=1;fillColor=#dae8fc;strokeColor=#6c8ebf;align=center;sketch=1;curveFitting=1;jiggle=2;" parent="1" vertex="1">
          <mxGeometry x="380" y="-160" width="170" height="150" as="geometry" />
        </mxCell>
        <mxCell id="Fv1dl7v4SsAJbc2tJzZJ-124" value="开发框架" style="text;html=1;strokeColor=none;fillColor=none;align=center;verticalAlign=middle;whiteSpace=wrap;rounded=0;sketch=1;curveFitting=1;jiggle=2;" parent="1" vertex="1">
          <mxGeometry x="440" y="-160" width="60" height="30" as="geometry" />
        </mxCell>
        <mxCell id="Fv1dl7v4SsAJbc2tJzZJ-125" value="node/ssr" style="rounded=0;whiteSpace=wrap;html=1;fillColor=#d5e8d4;strokeColor=#82b366;sketch=1;curveFitting=1;jiggle=2;" parent="1" vertex="1">
          <mxGeometry x="390" y="-90" width="70" height="30" as="geometry" />
        </mxCell>
        <mxCell id="Fv1dl7v4SsAJbc2tJzZJ-126" value="zzjava" style="rounded=0;whiteSpace=wrap;html=1;fillColor=#d5e8d4;strokeColor=#82b366;sketch=1;curveFitting=1;jiggle=2;" parent="1" vertex="1">
          <mxGeometry x="390" y="-130" width="70" height="30" as="geometry" />
        </mxCell>
        <mxCell id="Fv1dl7v4SsAJbc2tJzZJ-127" value="小程序" style="rounded=0;whiteSpace=wrap;html=1;fillColor=#d5e8d4;strokeColor=#82b366;sketch=1;curveFitting=1;jiggle=2;" parent="1" vertex="1">
          <mxGeometry x="470" y="-90" width="70" height="30" as="geometry" />
        </mxCell>
        <mxCell id="Fv1dl7v4SsAJbc2tJzZJ-128" value="scf" style="rounded=0;whiteSpace=wrap;html=1;fillColor=#d5e8d4;strokeColor=#82b366;sketch=1;curveFitting=1;jiggle=2;" parent="1" vertex="1">
          <mxGeometry x="470" y="-130" width="70" height="30" as="geometry" />
        </mxCell>
        <mxCell id="Fv1dl7v4SsAJbc2tJzZJ-129" value="账号&amp;amp;登陆&amp;amp;权限" style="rounded=0;whiteSpace=wrap;html=1;fillColor=#d5e8d4;strokeColor=#82b366;sketch=1;curveFitting=1;jiggle=2;" parent="1" vertex="1">
          <mxGeometry x="191" y="-310" width="1139" height="40" as="geometry" />
        </mxCell>
        <mxCell id="SChK_tNsF2rYapBzzm4q-2" value="" style="shape=flexArrow;endArrow=classic;html=1;rounded=0;width=10;endSize=3.67;endWidth=10;sketch=1;curveFitting=1;jiggle=2;" parent="1" edge="1">
          <mxGeometry width="50" height="50" relative="1" as="geometry">
            <mxPoint x="655.5" y="314" as="sourcePoint" />
            <mxPoint x="655.5" y="346" as="targetPoint" />
          </mxGeometry>
        </mxCell>
        <mxCell id="SChK_tNsF2rYapBzzm4q-3" value="" style="shape=flexArrow;endArrow=classic;html=1;rounded=0;width=10;endSize=3.67;endWidth=10;sketch=1;curveFitting=1;jiggle=2;" parent="1" edge="1">
          <mxGeometry width="50" height="50" relative="1" as="geometry">
            <mxPoint x="654.5" y="460" as="sourcePoint" />
            <mxPoint x="654.5" y="492" as="targetPoint" />
          </mxGeometry>
        </mxCell>
        <mxCell id="SChK_tNsF2rYapBzzm4q-4" value="覆盖率管理" style="rounded=0;whiteSpace=wrap;html=1;fillColor=#d5e8d4;strokeColor=#82b366;sketch=1;curveFitting=1;jiggle=2;" parent="1" vertex="1">
          <mxGeometry x="580" y="-60" width="70" height="30" as="geometry" />
        </mxCell>
        <mxCell id="SChK_tNsF2rYapBzzm4q-5" value="CR管理" style="rounded=0;whiteSpace=wrap;html=1;fillColor=#d5e8d4;strokeColor=#82b366;sketch=1;curveFitting=1;jiggle=2;" parent="1" vertex="1">
          <mxGeometry x="660" y="-60" width="70" height="30" as="geometry" />
        </mxCell>
        <mxCell id="SChK_tNsF2rYapBzzm4q-7" value="&lt;div style=&quot;&quot;&gt;&lt;br&gt;&lt;/div&gt;" style="rounded=0;whiteSpace=wrap;html=1;fillColor=#dae8fc;strokeColor=#6c8ebf;align=center;sketch=1;curveFitting=1;jiggle=2;" parent="1" vertex="1">
          <mxGeometry x="760" y="-250" width="170" height="240" as="geometry" />
        </mxCell>
        <mxCell id="SChK_tNsF2rYapBzzm4q-8" value="mock平台" style="rounded=0;whiteSpace=wrap;html=1;fillColor=#d5e8d4;strokeColor=#82b366;sketch=1;curveFitting=1;jiggle=2;" parent="1" vertex="1">
          <mxGeometry x="770" y="-140" width="70" height="30" as="geometry" />
        </mxCell>
        <mxCell id="SChK_tNsF2rYapBzzm4q-9" value="测试工具" style="text;html=1;strokeColor=none;fillColor=none;align=center;verticalAlign=middle;whiteSpace=wrap;rounded=0;sketch=1;curveFitting=1;jiggle=2;" parent="1" vertex="1">
          <mxGeometry x="820" y="-250" width="60" height="30" as="geometry" />
        </mxCell>
        <mxCell id="SChK_tNsF2rYapBzzm4q-10" value="流量录制" style="rounded=0;whiteSpace=wrap;html=1;fillColor=#d5e8d4;strokeColor=#82b366;sketch=1;curveFitting=1;jiggle=2;" parent="1" vertex="1">
          <mxGeometry x="770" y="-180" width="70" height="30" as="geometry" />
        </mxCell>
        <mxCell id="SChK_tNsF2rYapBzzm4q-11" value="压测平台" style="rounded=0;whiteSpace=wrap;html=1;fillColor=#d5e8d4;strokeColor=#82b366;sketch=1;curveFitting=1;jiggle=2;" parent="1" vertex="1">
          <mxGeometry x="770" y="-220" width="70" height="30" as="geometry" />
        </mxCell>
        <mxCell id="SChK_tNsF2rYapBzzm4q-12" value="接口测试" style="rounded=0;whiteSpace=wrap;html=1;fillColor=#d5e8d4;strokeColor=#82b366;sketch=1;curveFitting=1;jiggle=2;" parent="1" vertex="1">
          <mxGeometry x="770" y="-100" width="70" height="30" as="geometry" />
        </mxCell>
        <mxCell id="SChK_tNsF2rYapBzzm4q-13" value="异常注入" style="rounded=0;whiteSpace=wrap;html=1;fillColor=#d5e8d4;strokeColor=#82b366;sketch=1;curveFitting=1;jiggle=2;" parent="1" vertex="1">
          <mxGeometry x="850" y="-140" width="70" height="30" as="geometry" />
        </mxCell>
        <mxCell id="SChK_tNsF2rYapBzzm4q-14" value="用例管理" style="rounded=0;whiteSpace=wrap;html=1;fillColor=#d5e8d4;strokeColor=#82b366;sketch=1;curveFitting=1;jiggle=2;" parent="1" vertex="1">
          <mxGeometry x="850" y="-180" width="70" height="30" as="geometry" />
        </mxCell>
        <mxCell id="SChK_tNsF2rYapBzzm4q-15" value="数据构造" style="rounded=0;whiteSpace=wrap;html=1;fillColor=#d5e8d4;strokeColor=#82b366;sketch=1;curveFitting=1;jiggle=2;" parent="1" vertex="1">
          <mxGeometry x="850" y="-220" width="70" height="30" as="geometry" />
        </mxCell>
        <mxCell id="SChK_tNsF2rYapBzzm4q-16" value="精准测试" style="rounded=0;whiteSpace=wrap;html=1;fillColor=#d5e8d4;strokeColor=#82b366;sketch=1;curveFitting=1;jiggle=2;" parent="1" vertex="1">
          <mxGeometry x="850" y="-100" width="70" height="30" as="geometry" />
        </mxCell>
        <mxCell id="SChK_tNsF2rYapBzzm4q-17" value="兼容性测试" style="rounded=0;whiteSpace=wrap;html=1;fillColor=#d5e8d4;strokeColor=#82b366;sketch=1;curveFitting=1;jiggle=2;" parent="1" vertex="1">
          <mxGeometry x="770" y="-60" width="70" height="30" as="geometry" />
        </mxCell>
        <mxCell id="SChK_tNsF2rYapBzzm4q-18" value="APP专项" style="rounded=0;whiteSpace=wrap;html=1;fillColor=#d5e8d4;strokeColor=#82b366;sketch=1;curveFitting=1;jiggle=2;" parent="1" vertex="1">
          <mxGeometry x="850" y="-60" width="70" height="30" as="geometry" />
        </mxCell>
        <mxCell id="SChK_tNsF2rYapBzzm4q-20" value="脚手架" style="rounded=0;whiteSpace=wrap;html=1;fillColor=#d5e8d4;strokeColor=#82b366;sketch=1;curveFitting=1;jiggle=2;" parent="1" vertex="1">
          <mxGeometry x="390" y="-50" width="70" height="30" as="geometry" />
        </mxCell>
        <mxCell id="SChK_tNsF2rYapBzzm4q-21" value="super-pom" style="rounded=0;whiteSpace=wrap;html=1;fillColor=#d5e8d4;strokeColor=#82b366;sketch=1;curveFitting=1;jiggle=2;" parent="1" vertex="1">
          <mxGeometry x="470" y="-50" width="70" height="30" as="geometry" />
        </mxCell>
        <mxCell id="SChK_tNsF2rYapBzzm4q-22" value="MongoDB" style="rounded=0;whiteSpace=wrap;html=1;fillColor=#d5e8d4;strokeColor=#82b366;sketch=1;curveFitting=1;jiggle=2;" parent="1" vertex="1">
          <mxGeometry x="835" y="380" width="70" height="40" as="geometry" />
        </mxCell>
        <mxCell id="pqr_qoQHBSmuvUiit2ob-2" value="" style="rounded=0;whiteSpace=wrap;html=1;fillColor=none;strokeColor=#000000;dashed=1;sketch=1;curveFitting=1;jiggle=2;" parent="1" vertex="1">
          <mxGeometry x="573.5" y="-185" width="163" height="164" as="geometry" />
        </mxCell>
        <mxCell id="SChK_tNsF2rYapBzzm4q-23" value="TiDB" style="rounded=0;whiteSpace=wrap;html=1;fillColor=#d5e8d4;strokeColor=#82b366;sketch=1;curveFitting=1;jiggle=2;" parent="1" vertex="1">
          <mxGeometry x="943" y="380" width="70" height="40" as="geometry" />
        </mxCell>
        <mxCell id="SChK_tNsF2rYapBzzm4q-24" value="" style="group;rounded=0;sketch=1;curveFitting=1;jiggle=2;" parent="1" vertex="1" connectable="0">
          <mxGeometry x="190" y="90" width="250" height="190" as="geometry" />
        </mxCell>
        <mxCell id="Fv1dl7v4SsAJbc2tJzZJ-22" value="&lt;div style=&quot;&quot;&gt;&lt;br&gt;&lt;/div&gt;" style="rounded=0;whiteSpace=wrap;html=1;fillColor=#dae8fc;strokeColor=#6c8ebf;align=center;sketch=1;curveFitting=1;jiggle=2;" parent="SChK_tNsF2rYapBzzm4q-24" vertex="1">
          <mxGeometry width="250" height="190" as="geometry" />
        </mxCell>
        <mxCell id="Fv1dl7v4SsAJbc2tJzZJ-19" value="CDN" style="rounded=0;whiteSpace=wrap;html=1;fillColor=#d5e8d4;strokeColor=#82b366;sketch=1;curveFitting=1;jiggle=2;" parent="SChK_tNsF2rYapBzzm4q-24" vertex="1">
          <mxGeometry x="10" y="110" width="70" height="30" as="geometry" />
        </mxCell>
        <mxCell id="Fv1dl7v4SsAJbc2tJzZJ-23" value="基础服务" style="text;html=1;strokeColor=none;fillColor=none;align=center;verticalAlign=middle;whiteSpace=wrap;rounded=0;sketch=1;curveFitting=1;jiggle=2;" parent="SChK_tNsF2rYapBzzm4q-24" vertex="1">
          <mxGeometry x="60" width="60" height="30" as="geometry" />
        </mxCell>
        <mxCell id="Fv1dl7v4SsAJbc2tJzZJ-25" value="DNS" style="rounded=0;whiteSpace=wrap;html=1;fillColor=#d5e8d4;strokeColor=#82b366;sketch=1;curveFitting=1;jiggle=2;" parent="SChK_tNsF2rYapBzzm4q-24" vertex="1">
          <mxGeometry x="10" y="70" width="70" height="30" as="geometry" />
        </mxCell>
        <mxCell id="Fv1dl7v4SsAJbc2tJzZJ-26" value="代理层" style="rounded=0;whiteSpace=wrap;html=1;fillColor=#d5e8d4;strokeColor=#82b366;sketch=1;curveFitting=1;jiggle=2;" parent="SChK_tNsF2rYapBzzm4q-24" vertex="1">
          <mxGeometry x="10" y="30" width="70" height="30" as="geometry" />
        </mxCell>
        <mxCell id="Fv1dl7v4SsAJbc2tJzZJ-27" value="entry" style="rounded=0;whiteSpace=wrap;html=1;fillColor=#d5e8d4;strokeColor=#82b366;sketch=1;curveFitting=1;jiggle=2;" parent="SChK_tNsF2rYapBzzm4q-24" vertex="1">
          <mxGeometry x="10" y="150" width="70" height="30" as="geometry" />
        </mxCell>
        <mxCell id="Fv1dl7v4SsAJbc2tJzZJ-29" value="多媒体服务" style="rounded=0;whiteSpace=wrap;html=1;fillColor=#d5e8d4;strokeColor=#82b366;sketch=1;curveFitting=1;jiggle=2;" parent="SChK_tNsF2rYapBzzm4q-24" vertex="1">
          <mxGeometry x="90" y="110" width="70" height="30" as="geometry" />
        </mxCell>
        <mxCell id="Fv1dl7v4SsAJbc2tJzZJ-30" value="短信服务" style="rounded=0;whiteSpace=wrap;html=1;fillColor=#d5e8d4;strokeColor=#82b366;sketch=1;curveFitting=1;jiggle=2;" parent="SChK_tNsF2rYapBzzm4q-24" vertex="1">
          <mxGeometry x="90" y="70" width="70" height="30" as="geometry" />
        </mxCell>
        <mxCell id="Fv1dl7v4SsAJbc2tJzZJ-31" value="openapi" style="rounded=0;whiteSpace=wrap;html=1;fillColor=#d5e8d4;strokeColor=#82b366;sketch=1;curveFitting=1;jiggle=2;" parent="SChK_tNsF2rYapBzzm4q-24" vertex="1">
          <mxGeometry x="90" y="30" width="70" height="30" as="geometry" />
        </mxCell>
        <mxCell id="Fv1dl7v4SsAJbc2tJzZJ-32" value="分布式ID生成器" style="rounded=0;whiteSpace=wrap;html=1;fillColor=#d5e8d4;strokeColor=#82b366;sketch=1;curveFitting=1;jiggle=2;" parent="SChK_tNsF2rYapBzzm4q-24" vertex="1">
          <mxGeometry x="90" y="150" width="70" height="30" as="geometry" />
        </mxCell>
        <mxCell id="d4JaCLLDEHtYSWNz86f5-16" value="短信服务" style="rounded=0;whiteSpace=wrap;html=1;fillColor=#d5e8d4;strokeColor=#82b366;sketch=1;curveFitting=1;jiggle=2;" parent="SChK_tNsF2rYapBzzm4q-24" vertex="1">
          <mxGeometry x="170" y="110" width="70" height="30" as="geometry" />
        </mxCell>
        <mxCell id="d4JaCLLDEHtYSWNz86f5-17" value="操作日志服务" style="rounded=0;whiteSpace=wrap;html=1;fillColor=#d5e8d4;strokeColor=#82b366;sketch=1;curveFitting=1;jiggle=2;" parent="SChK_tNsF2rYapBzzm4q-24" vertex="1">
          <mxGeometry x="170" y="70" width="70" height="30" as="geometry" />
        </mxCell>
        <mxCell id="d4JaCLLDEHtYSWNz86f5-18" value="分布式锁" style="rounded=0;whiteSpace=wrap;html=1;fillColor=#d5e8d4;strokeColor=#82b366;sketch=1;curveFitting=1;jiggle=2;" parent="SChK_tNsF2rYapBzzm4q-24" vertex="1">
          <mxGeometry x="170" y="30" width="70" height="30" as="geometry" />
        </mxCell>
        <mxCell id="d4JaCLLDEHtYSWNz86f5-19" value="" style="rounded=0;whiteSpace=wrap;html=1;fillColor=#d5e8d4;strokeColor=#82b366;sketch=1;curveFitting=1;jiggle=2;" parent="SChK_tNsF2rYapBzzm4q-24" vertex="1">
          <mxGeometry x="170" y="150" width="70" height="30" as="geometry" />
        </mxCell>
        <mxCell id="SChK_tNsF2rYapBzzm4q-25" value="" style="group;rounded=0;sketch=1;curveFitting=1;jiggle=2;" parent="1" vertex="1" connectable="0">
          <mxGeometry x="545" y="90" width="220" height="190" as="geometry" />
        </mxCell>
        <mxCell id="Fv1dl7v4SsAJbc2tJzZJ-33" value="&lt;div style=&quot;&quot;&gt;&lt;br&gt;&lt;/div&gt;" style="rounded=0;whiteSpace=wrap;html=1;fillColor=#ffe6cc;strokeColor=#d79b00;align=center;sketch=1;curveFitting=1;jiggle=2;" parent="SChK_tNsF2rYapBzzm4q-25" vertex="1">
          <mxGeometry width="220" height="190" as="geometry" />
        </mxCell>
        <mxCell id="Fv1dl7v4SsAJbc2tJzZJ-37" value="" style="rounded=0;whiteSpace=wrap;html=1;fillColor=#d5e8d4;strokeColor=#82b366;sketch=1;curveFitting=1;jiggle=2;" parent="SChK_tNsF2rYapBzzm4q-25" vertex="1">
          <mxGeometry x="10" y="30" width="90" height="150" as="geometry" />
        </mxCell>
        <mxCell id="Fv1dl7v4SsAJbc2tJzZJ-35" value="业务服务" style="text;html=1;strokeColor=none;fillColor=none;align=center;verticalAlign=middle;whiteSpace=wrap;rounded=0;sketch=1;curveFitting=1;jiggle=2;" parent="SChK_tNsF2rYapBzzm4q-25" vertex="1">
          <mxGeometry x="80" width="60" height="30" as="geometry" />
        </mxCell>
        <mxCell id="Fv1dl7v4SsAJbc2tJzZJ-36" value="基础工具包" style="rounded=0;whiteSpace=wrap;html=1;fillColor=#d5e8d4;strokeColor=#82b366;sketch=1;curveFitting=1;jiggle=2;" parent="SChK_tNsF2rYapBzzm4q-25" vertex="1">
          <mxGeometry x="20" y="60" width="70" height="30" as="geometry" />
        </mxCell>
        <mxCell id="Fv1dl7v4SsAJbc2tJzZJ-38" value="系统工具" style="rounded=0;whiteSpace=wrap;html=1;fillColor=#d5e8d4;strokeColor=#82b366;sketch=1;curveFitting=1;jiggle=2;" parent="SChK_tNsF2rYapBzzm4q-25" vertex="1">
          <mxGeometry x="20" y="140" width="70" height="30" as="geometry" />
        </mxCell>
        <mxCell id="Fv1dl7v4SsAJbc2tJzZJ-34" value="日志工具" style="rounded=0;whiteSpace=wrap;html=1;fillColor=#d5e8d4;strokeColor=#82b366;sketch=1;curveFitting=1;jiggle=2;" parent="SChK_tNsF2rYapBzzm4q-25" vertex="1">
          <mxGeometry x="20" y="100" width="70" height="30" as="geometry" />
        </mxCell>
        <mxCell id="Fv1dl7v4SsAJbc2tJzZJ-43" value="公共组件" style="text;html=1;strokeColor=none;fillColor=none;align=center;verticalAlign=middle;whiteSpace=wrap;rounded=0;sketch=1;curveFitting=1;jiggle=2;" parent="SChK_tNsF2rYapBzzm4q-25" vertex="1">
          <mxGeometry x="25" y="30" width="60" height="30" as="geometry" />
        </mxCell>
        <mxCell id="Fv1dl7v4SsAJbc2tJzZJ-44" value="" style="rounded=0;whiteSpace=wrap;html=1;fillColor=#d5e8d4;strokeColor=#82b366;sketch=1;curveFitting=1;jiggle=2;" parent="SChK_tNsF2rYapBzzm4q-25" vertex="1">
          <mxGeometry x="120" y="30" width="90" height="150" as="geometry" />
        </mxCell>
        <mxCell id="Fv1dl7v4SsAJbc2tJzZJ-45" value="代码包" style="rounded=0;whiteSpace=wrap;html=1;fillColor=#d5e8d4;strokeColor=#82b366;sketch=1;curveFitting=1;jiggle=2;" parent="SChK_tNsF2rYapBzzm4q-25" vertex="1">
          <mxGeometry x="130" y="60" width="70" height="30" as="geometry" />
        </mxCell>
        <mxCell id="Fv1dl7v4SsAJbc2tJzZJ-46" value="运行时日志" style="rounded=0;whiteSpace=wrap;html=1;fillColor=#d5e8d4;strokeColor=#82b366;sketch=1;curveFitting=1;jiggle=2;" parent="SChK_tNsF2rYapBzzm4q-25" vertex="1">
          <mxGeometry x="130" y="140" width="70" height="30" as="geometry" />
        </mxCell>
        <mxCell id="Fv1dl7v4SsAJbc2tJzZJ-47" value="运行时数据" style="rounded=0;whiteSpace=wrap;html=1;fillColor=#d5e8d4;strokeColor=#82b366;sketch=1;curveFitting=1;jiggle=2;" parent="SChK_tNsF2rYapBzzm4q-25" vertex="1">
          <mxGeometry x="130" y="100" width="70" height="30" as="geometry" />
        </mxCell>
        <mxCell id="Fv1dl7v4SsAJbc2tJzZJ-48" value="业务组件" style="text;html=1;strokeColor=none;fillColor=none;align=center;verticalAlign=middle;whiteSpace=wrap;rounded=0;sketch=1;curveFitting=1;jiggle=2;" parent="SChK_tNsF2rYapBzzm4q-25" vertex="1">
          <mxGeometry x="135" y="30" width="60" height="30" as="geometry" />
        </mxCell>
        <mxCell id="SChK_tNsF2rYapBzzm4q-28" value="" style="shape=flexArrow;endArrow=classic;html=1;rounded=0;entryX=0.33;entryY=0.609;entryDx=0;entryDy=0;entryPerimeter=0;endWidth=22;endSize=10.7;width=18;sketch=1;curveFitting=1;jiggle=2;" parent="1" edge="1">
          <mxGeometry width="50" height="50" relative="1" as="geometry">
            <mxPoint x="450" y="184.5" as="sourcePoint" />
            <mxPoint x="530.0999999999999" y="184.57000000000016" as="targetPoint" />
          </mxGeometry>
        </mxCell>
        <mxCell id="SChK_tNsF2rYapBzzm4q-30" value="" style="shape=flexArrow;endArrow=classic;html=1;rounded=0;entryX=0.33;entryY=0.609;entryDx=0;entryDy=0;entryPerimeter=0;endWidth=22;endSize=10.7;width=18;sketch=1;curveFitting=1;jiggle=2;" parent="1" edge="1">
          <mxGeometry width="50" height="50" relative="1" as="geometry">
            <mxPoint x="850.0999999999999" y="184.57000000000016" as="sourcePoint" />
            <mxPoint x="770" y="184.5" as="targetPoint" />
          </mxGeometry>
        </mxCell>
        <mxCell id="pqr_qoQHBSmuvUiit2ob-1" value="" style="endArrow=none;dashed=1;html=1;dashPattern=1 3;strokeWidth=2;rounded=0;sketch=1;curveFitting=1;jiggle=2;" parent="1" edge="1">
          <mxGeometry width="50" height="50" relative="1" as="geometry">
            <mxPoint x="71" y="40" as="sourcePoint" />
            <mxPoint x="1140" y="40" as="targetPoint" />
          </mxGeometry>
        </mxCell>
        <mxCell id="pqr_qoQHBSmuvUiit2ob-4" value="打包管理" style="rounded=0;whiteSpace=wrap;html=1;fillColor=#d5e8d4;strokeColor=#82b366;sketch=1;curveFitting=1;jiggle=2;" parent="1" vertex="1">
          <mxGeometry x="660" y="-180" width="70" height="30" as="geometry" />
        </mxCell>
        <mxCell id="pqr_qoQHBSmuvUiit2ob-5" value="" style="shape=flexArrow;endArrow=classic;html=1;rounded=0;width=10;endSize=3.67;endWidth=10;sketch=1;curveFitting=1;jiggle=2;" parent="1" edge="1">
          <mxGeometry width="50" height="50" relative="1" as="geometry">
            <mxPoint x="654.5" y="20" as="sourcePoint" />
            <mxPoint x="654.5" y="52" as="targetPoint" />
          </mxGeometry>
        </mxCell>
        <mxCell id="d4JaCLLDEHtYSWNz86f5-1" value="Codis" style="rounded=0;whiteSpace=wrap;html=1;fillColor=#d5e8d4;strokeColor=#82b366;sketch=1;curveFitting=1;jiggle=2;" parent="1" vertex="1">
          <mxGeometry x="298" y="380" width="70" height="40" as="geometry" />
        </mxCell>
        <mxCell id="d4JaCLLDEHtYSWNz86f5-2" value="Tendis" style="rounded=0;whiteSpace=wrap;html=1;fillColor=#d5e8d4;strokeColor=#82b366;sketch=1;curveFitting=1;jiggle=2;" parent="1" vertex="1">
          <mxGeometry x="406" y="380" width="70" height="40" as="geometry" />
        </mxCell>
        <mxCell id="d4JaCLLDEHtYSWNz86f5-3" value="zzos" style="rounded=0;whiteSpace=wrap;html=1;fillColor=#d5e8d4;strokeColor=#82b366;sketch=1;curveFitting=1;jiggle=2;" parent="1" vertex="1">
          <mxGeometry x="621" y="380" width="70" height="40" as="geometry" />
        </mxCell>
        <mxCell id="d4JaCLLDEHtYSWNz86f5-4" value="&lt;div style=&quot;&quot;&gt;&lt;br&gt;&lt;/div&gt;" style="rounded=0;whiteSpace=wrap;html=1;fillColor=#dae8fc;strokeColor=#6c8ebf;align=center;sketch=1;curveFitting=1;jiggle=2;" parent="1" vertex="1">
          <mxGeometry x="950" y="-250" width="190" height="240" as="geometry" />
        </mxCell>
        <mxCell id="d4JaCLLDEHtYSWNz86f5-5" value="" style="rounded=0;whiteSpace=wrap;html=1;fillColor=#d5e8d4;strokeColor=#82b366;sketch=1;curveFitting=1;jiggle=2;" parent="1" vertex="1">
          <mxGeometry x="960" y="-140" width="80" height="30" as="geometry" />
        </mxCell>
        <mxCell id="d4JaCLLDEHtYSWNz86f5-6" value="工具平台" style="text;html=1;strokeColor=none;fillColor=none;align=center;verticalAlign=middle;whiteSpace=wrap;rounded=0;sketch=1;curveFitting=1;jiggle=2;" parent="1" vertex="1">
          <mxGeometry x="1010" y="-250" width="60" height="30" as="geometry" />
        </mxCell>
        <mxCell id="d4JaCLLDEHtYSWNz86f5-7" value="" style="rounded=0;whiteSpace=wrap;html=1;fillColor=#d5e8d4;strokeColor=#82b366;sketch=1;curveFitting=1;jiggle=2;" parent="1" vertex="1">
          <mxGeometry x="960" y="-180" width="80" height="30" as="geometry" />
        </mxCell>
        <mxCell id="d4JaCLLDEHtYSWNz86f5-8" value="企微消息平台" style="rounded=0;whiteSpace=wrap;html=1;fillColor=#d5e8d4;strokeColor=#82b366;sketch=1;curveFitting=1;jiggle=2;" parent="1" vertex="1">
          <mxGeometry x="960" y="-220" width="80" height="30" as="geometry" />
        </mxCell>
        <mxCell id="d4JaCLLDEHtYSWNz86f5-9" value="" style="rounded=0;whiteSpace=wrap;html=1;fillColor=#d5e8d4;strokeColor=#82b366;sketch=1;curveFitting=1;jiggle=2;" parent="1" vertex="1">
          <mxGeometry x="960" y="-100" width="80" height="30" as="geometry" />
        </mxCell>
        <mxCell id="d4JaCLLDEHtYSWNz86f5-10" value="" style="rounded=0;whiteSpace=wrap;html=1;fillColor=#d5e8d4;strokeColor=#82b366;sketch=1;curveFitting=1;jiggle=2;" parent="1" vertex="1">
          <mxGeometry x="1050" y="-140" width="80" height="30" as="geometry" />
        </mxCell>
        <mxCell id="d4JaCLLDEHtYSWNz86f5-11" value="" style="rounded=0;whiteSpace=wrap;html=1;fillColor=#d5e8d4;strokeColor=#82b366;sketch=1;curveFitting=1;jiggle=2;" parent="1" vertex="1">
          <mxGeometry x="1050" y="-180" width="80" height="30" as="geometry" />
        </mxCell>
        <mxCell id="d4JaCLLDEHtYSWNz86f5-12" value="日志查询平台" style="rounded=0;whiteSpace=wrap;html=1;fillColor=#d5e8d4;strokeColor=#82b366;sketch=1;curveFitting=1;jiggle=2;" parent="1" vertex="1">
          <mxGeometry x="1050" y="-220" width="80" height="30" as="geometry" />
        </mxCell>
        <mxCell id="d4JaCLLDEHtYSWNz86f5-13" value="" style="rounded=0;whiteSpace=wrap;html=1;fillColor=#d5e8d4;strokeColor=#82b366;sketch=1;curveFitting=1;jiggle=2;" parent="1" vertex="1">
          <mxGeometry x="1050" y="-100" width="80" height="30" as="geometry" />
        </mxCell>
        <mxCell id="d4JaCLLDEHtYSWNz86f5-14" value="" style="rounded=0;whiteSpace=wrap;html=1;fillColor=#d5e8d4;strokeColor=#82b366;sketch=1;curveFitting=1;jiggle=2;" parent="1" vertex="1">
          <mxGeometry x="960" y="-60" width="80" height="30" as="geometry" />
        </mxCell>
        <mxCell id="d4JaCLLDEHtYSWNz86f5-15" value="" style="rounded=0;whiteSpace=wrap;html=1;fillColor=#d5e8d4;strokeColor=#82b366;sketch=1;curveFitting=1;jiggle=2;" parent="1" vertex="1">
          <mxGeometry x="1050" y="-60" width="80" height="30" as="geometry" />
        </mxCell>
        <mxCell id="d4JaCLLDEHtYSWNz86f5-20" value="zzkv" style="rounded=0;whiteSpace=wrap;html=1;fillColor=#d5e8d4;strokeColor=#82b366;sketch=1;curveFitting=1;jiggle=2;" parent="1" vertex="1">
          <mxGeometry x="513" y="380" width="70" height="40" as="geometry" />
        </mxCell>
        <mxCell id="Fv1dl7v4SsAJbc2tJzZJ-49" value="&lt;div style=&quot;&quot;&gt;&lt;br&gt;&lt;/div&gt;" style="rounded=0;whiteSpace=wrap;html=1;fillColor=#dae8fc;strokeColor=#6c8ebf;align=center;container=0;sketch=1;curveFitting=1;jiggle=2;" parent="1" vertex="1">
          <mxGeometry x="870" y="90" width="250" height="190" as="geometry" />
        </mxCell>
        <mxCell id="Fv1dl7v4SsAJbc2tJzZJ-50" value="熔断限流" style="rounded=0;whiteSpace=wrap;html=1;fillColor=#d5e8d4;strokeColor=#82b366;container=0;sketch=1;curveFitting=1;jiggle=2;" parent="1" vertex="1">
          <mxGeometry x="880" y="200" width="70" height="30" as="geometry" />
        </mxCell>
        <mxCell id="Fv1dl7v4SsAJbc2tJzZJ-51" value="中间件" style="text;html=1;strokeColor=none;fillColor=none;align=center;verticalAlign=middle;whiteSpace=wrap;rounded=0;container=0;sketch=1;curveFitting=1;jiggle=2;" parent="1" vertex="1">
          <mxGeometry x="1010" y="90" width="60" height="30" as="geometry" />
        </mxCell>
        <mxCell id="Fv1dl7v4SsAJbc2tJzZJ-52" value="配置中心" style="rounded=0;whiteSpace=wrap;html=1;fillColor=#d5e8d4;strokeColor=#82b366;container=0;sketch=1;curveFitting=1;jiggle=2;" parent="1" vertex="1">
          <mxGeometry x="880" y="160" width="70" height="30" as="geometry" />
        </mxCell>
        <mxCell id="Fv1dl7v4SsAJbc2tJzZJ-53" value="SCF" style="rounded=0;whiteSpace=wrap;html=1;fillColor=#d5e8d4;strokeColor=#82b366;container=0;sketch=1;curveFitting=1;jiggle=2;" parent="1" vertex="1">
          <mxGeometry x="880" y="120" width="70" height="30" as="geometry" />
        </mxCell>
        <mxCell id="Fv1dl7v4SsAJbc2tJzZJ-54" value="线程池" style="rounded=0;whiteSpace=wrap;html=1;fillColor=#d5e8d4;strokeColor=#82b366;container=0;sketch=1;curveFitting=1;jiggle=2;" parent="1" vertex="1">
          <mxGeometry x="880" y="240" width="70" height="30" as="geometry" />
        </mxCell>
        <mxCell id="Fv1dl7v4SsAJbc2tJzZJ-55" value="" style="rounded=0;whiteSpace=wrap;html=1;fillColor=#d5e8d4;strokeColor=#82b366;container=0;sketch=1;curveFitting=1;jiggle=2;" parent="1" vertex="1">
          <mxGeometry x="960" y="200" width="70" height="30" as="geometry" />
        </mxCell>
        <mxCell id="Fv1dl7v4SsAJbc2tJzZJ-56" value="任务调度" style="rounded=0;whiteSpace=wrap;html=1;fillColor=#d5e8d4;strokeColor=#82b366;container=0;sketch=1;curveFitting=1;jiggle=2;" parent="1" vertex="1">
          <mxGeometry x="960" y="160" width="70" height="30" as="geometry" />
        </mxCell>
        <mxCell id="Fv1dl7v4SsAJbc2tJzZJ-57" value="ZZMQ" style="rounded=0;whiteSpace=wrap;html=1;fillColor=#d5e8d4;strokeColor=#82b366;container=0;sketch=1;curveFitting=1;jiggle=2;" parent="1" vertex="1">
          <mxGeometry x="960" y="120" width="70" height="30" as="geometry" />
        </mxCell>
        <mxCell id="Fv1dl7v4SsAJbc2tJzZJ-58" value="数据库连接池" style="rounded=0;whiteSpace=wrap;html=1;fillColor=#d5e8d4;strokeColor=#82b366;container=0;sketch=1;curveFitting=1;jiggle=2;" parent="1" vertex="1">
          <mxGeometry x="960" y="240" width="70" height="30" as="geometry" />
        </mxCell>
        <mxCell id="JCfMUNi8tZ8EUr4CiddE-5" value="" style="rounded=0;whiteSpace=wrap;html=1;fillColor=#d5e8d4;strokeColor=#82b366;container=0;sketch=1;curveFitting=1;jiggle=2;" vertex="1" parent="1">
          <mxGeometry x="1040" y="200" width="70" height="30" as="geometry" />
        </mxCell>
        <mxCell id="JCfMUNi8tZ8EUr4CiddE-6" value="分布式追踪" style="rounded=0;whiteSpace=wrap;html=1;fillColor=#d5e8d4;strokeColor=#82b366;container=0;sketch=1;curveFitting=1;jiggle=2;" vertex="1" parent="1">
          <mxGeometry x="1040" y="160" width="70" height="30" as="geometry" />
        </mxCell>
        <mxCell id="JCfMUNi8tZ8EUr4CiddE-7" value="监控系统" style="rounded=0;whiteSpace=wrap;html=1;fillColor=#d5e8d4;strokeColor=#82b366;container=0;sketch=1;curveFitting=1;jiggle=2;" vertex="1" parent="1">
          <mxGeometry x="1040" y="120" width="70" height="30" as="geometry" />
        </mxCell>
        <mxCell id="JCfMUNi8tZ8EUr4CiddE-8" value="Http连接池" style="rounded=0;whiteSpace=wrap;html=1;fillColor=#d5e8d4;strokeColor=#82b366;container=0;sketch=1;curveFitting=1;jiggle=2;" vertex="1" parent="1">
          <mxGeometry x="1040" y="240" width="70" height="30" as="geometry" />
        </mxCell>
      </root>
    </mxGraphModel>
  </diagram>
</mxfile>
